<svg width="28" height="28" viewBox="0 0 28 28" fill="none" xmlns="http://www.w3.org/2000/svg">
<path d="M2.28358 15.5524L2.28385 15.5526L11.7701 25.034C11.7713 25.0351 11.7724 25.0363 11.7736 25.0375C12.8181 26.0895 14.5119 26.0801 15.5524 25.0397L16.6308 23.9612C16.6319 23.9601 16.633 23.9591 16.634 23.958C17.7042 22.8954 17.6771 21.1666 16.5902 20.1336C16.5897 20.1331 16.5892 20.1326 16.5887 20.1322L13.4215 17.1147H23.7056C25.1834 17.1147 26.3774 15.9207 26.3774 14.4429V12.8804C26.3774 11.4025 25.1834 10.2085 23.7056 10.2085H13.4215L16.5908 7.18907L16.5943 7.18578C17.6716 6.15281 17.6978 4.42903 16.6363 3.36756L15.5546 2.28586C14.5101 1.23378 12.8163 1.24308 11.7758 2.28358L2.28578 11.7736C1.23378 12.8181 1.24311 14.5119 2.28358 15.5524Z" fill="#68D3FF" stroke="black" stroke-width="3"/>
</svg>
