<svg width="31" height="31" viewBox="0 0 31 31" fill="none" xmlns="http://www.w3.org/2000/svg">
<path d="M16.5583 14.9208L16.5584 14.9207C17.0163 14.664 17.5799 14.3475 18.0088 13.9495C18.5132 13.4814 18.9134 12.8292 18.9134 11.9534C18.9134 10.7701 18.1572 9.96228 17.489 9.52815C16.8092 9.0865 15.9668 8.84409 15.182 8.84409C14.2377 8.84409 13.4486 9.08421 12.7491 9.57639C12.3833 9.83375 12.0641 10.1471 11.7775 10.4703L11.5036 10.2626C11.9233 9.76212 12.3621 9.38679 12.8366 9.11483C13.4999 8.7347 14.3244 8.50391 15.4343 8.50391C16.4411 8.50391 17.53 8.90597 18.356 9.58843C19.1755 10.2656 19.6243 11.1164 19.6243 11.9844C19.6243 12.631 19.4569 13.0426 19.2521 13.3417C19.0305 13.6653 18.7073 13.9404 18.2775 14.219C18.0627 14.3582 17.844 14.4845 17.6012 14.6246L17.5979 14.6265L17.5869 14.6328C17.3619 14.7627 17.0936 14.9175 16.8522 15.0821C16.5581 15.2826 16.0093 15.686 15.7321 16.3438H14.7985C15.0492 15.7989 15.6323 15.4399 16.5583 14.9208ZM11.206 11.1634C11.2063 11.163 11.2066 11.1627 11.2069 11.1623C11.2066 11.1626 11.2064 11.163 11.2061 11.1633L11.206 11.1634ZM15.1094 28.7188C22.625 28.7188 28.7188 22.6273 28.7188 15.1094C28.7188 7.5957 22.6253 1.5 15.1094 1.5C7.59344 1.5 1.5 7.5957 1.5 15.1094C1.5 22.6273 7.59375 28.7188 15.1094 28.7188ZM14.3633 21.3594C14.3633 20.9493 14.6993 20.6133 15.1094 20.6133C15.5195 20.6133 15.8555 20.9493 15.8555 21.3594C15.8555 21.7694 15.5195 22.1055 15.1094 22.1055C14.6993 22.1055 14.3633 21.7694 14.3633 21.3594Z" fill="#68D3FF" stroke="black" stroke-width="3"/>
</svg>
