<svg width="22" height="20" viewBox="0 0 22 20" fill="none" xmlns="http://www.w3.org/2000/svg">
<path d="M19.83 6.01L13.28 0.769999C12 -0.250001 10 -0.260001 8.73002 0.759999L2.18002 6.01C1.24002 6.76 0.670024 8.26 0.870024 9.44L2.13002 16.98C2.42002 18.67 3.99002 20 5.70002 20H16.3C17.99 20 19.59 18.64 19.88 16.97L21.14 9.43C21.32 8.26 20.75 6.76 19.83 6.01ZM11.75 16C11.75 16.41 11.41 16.75 11 16.75C10.59 16.75 10.25 16.41 10.25 16V13C10.25 12.59 10.59 12.25 11 12.25C11.41 12.25 11.75 12.59 11.75 13V16Z" fill="white"/>
</svg>
