<svg width="37" height="30" viewBox="0 0 37 30" fill="none" xmlns="http://www.w3.org/2000/svg">
<path d="M18.5 2.5C10.0054 2.5 3.08331 8.1125 3.08331 15C3.08331 21.8875 10.0054 27.5 18.5 27.5C26.9946 27.5 33.9166 21.8875 33.9166 15C33.9166 8.1125 26.9946 2.5 18.5 2.5ZM17.3437 10C17.3437 9.4875 17.8679 9.0625 18.5 9.0625C19.1321 9.0625 19.6562 9.4875 19.6562 10V16.25C19.6562 16.7625 19.1321 17.1875 18.5 17.1875C17.8679 17.1875 17.3437 16.7625 17.3437 16.25V10ZM19.9183 20.475C19.8412 20.6375 19.7333 20.7625 19.5946 20.8875C19.4404 21 19.2708 21.0875 19.0858 21.15C18.9008 21.2125 18.7004 21.25 18.5 21.25C18.2996 21.25 18.0991 21.2125 17.9141 21.15C17.7291 21.0875 17.5596 21 17.4054 20.8875C17.2666 20.7625 17.1587 20.6375 17.0816 20.475C17.0025 20.3248 16.9605 20.1634 16.9583 20C16.9583 19.8375 17.0046 19.675 17.0816 19.525C17.1587 19.375 17.2666 19.2375 17.4054 19.1125C17.5596 19 17.7291 18.9125 17.9141 18.85C18.2895 18.725 18.7105 18.725 19.0858 18.85C19.2708 18.9125 19.4404 19 19.5946 19.1125C19.7333 19.2375 19.8412 19.375 19.9183 19.525C19.9954 19.675 20.0416 19.8375 20.0416 20C20.0416 20.1625 19.9954 20.325 19.9183 20.475Z" fill="white"/>
</svg>
