<svg width="184" height="588" viewBox="0 0 184 588" fill="none" xmlns="http://www.w3.org/2000/svg">
<rect width="184" height="608" fill="#3F0015"/>
<path d="M64.52 34.8C65.6 34.8 66.52 34.9733 67.28 35.32C68.04 35.6667 68.62 36.1667 69.02 36.82C69.42 37.4733 69.62 38.2667 69.62 39.2C69.62 40.1333 69.42 40.9267 69.02 41.58C68.62 42.2333 68.04 42.7333 67.28 43.08C66.52 43.4267 65.6 43.6 64.52 43.6H61.9V48H58.46V34.8H64.52ZM63.98 41.02C64.7 41.02 65.24 40.8733 65.6 40.58C65.9733 40.2733 66.16 39.8133 66.16 39.2C66.16 38.5867 65.9733 38.1333 65.6 37.84C65.24 37.5333 64.7 37.38 63.98 37.38H61.9V41.02H63.98ZM77.1594 41.66C77.1594 41.1933 77.026 40.8267 76.7594 40.56C76.506 40.28 76.1594 40.14 75.7194 40.14C75.2794 40.14 74.8994 40.2533 74.5794 40.48C74.2727 40.6933 74.0594 41.08 73.9394 41.64L71.0594 40.96C71.246 40 71.7394 39.2333 72.5394 38.66C73.3394 38.0867 74.466 37.8 75.9194 37.8C76.8927 37.8 77.7194 37.9467 78.3994 38.24C79.0927 38.52 79.6194 38.9467 79.9794 39.52C80.3527 40.08 80.5394 40.7733 80.5394 41.6V45.26C80.5394 45.78 80.7727 46.04 81.2394 46.04C81.4794 46.04 81.6727 46.0133 81.8194 45.96L81.6194 47.9C81.2194 48.0867 80.7327 48.18 80.1594 48.18C79.6394 48.18 79.1794 48.1 78.7794 47.94C78.3794 47.7667 78.066 47.5133 77.8394 47.18C77.6127 46.8333 77.4994 46.4 77.4994 45.88V45.76L77.8794 45.62C77.8794 46.1933 77.706 46.6733 77.3594 47.06C77.026 47.4467 76.586 47.7333 76.0394 47.92C75.506 48.1067 74.946 48.2 74.3594 48.2C73.6794 48.2 73.086 48.0933 72.5794 47.88C72.0727 47.6667 71.6794 47.36 71.3994 46.96C71.1327 46.5467 70.9994 46.04 70.9994 45.44C70.9994 44.72 71.2127 44.1267 71.6394 43.66C72.0794 43.18 72.766 42.8467 73.6994 42.66L77.4794 41.88L77.4594 43.68L75.5394 44.08C75.1394 44.16 74.8394 44.28 74.6394 44.44C74.4527 44.5867 74.3594 44.8133 74.3594 45.12C74.3594 45.4133 74.466 45.6333 74.6794 45.78C74.8927 45.9267 75.146 46 75.4394 46C75.666 46 75.8794 45.9667 76.0794 45.9C76.2927 45.8333 76.4794 45.7333 76.6394 45.6C76.7994 45.4533 76.926 45.2733 77.0194 45.06C77.1127 44.8467 77.1594 44.5933 77.1594 44.3V41.66ZM83.1614 48V38H86.1614L86.3014 40.16C86.5547 39.4133 86.9281 38.8333 87.4214 38.42C87.9281 38.0067 88.5681 37.8 89.3414 37.8C89.5947 37.8 89.8081 37.82 89.9814 37.86C90.1681 37.9 90.3147 37.9533 90.4214 38.02L90.0814 40.82C89.9481 40.7667 89.7747 40.7267 89.5614 40.7C89.3614 40.66 89.1147 40.64 88.8214 40.64C88.4214 40.64 88.0481 40.7267 87.7014 40.9C87.3547 41.0733 87.0747 41.3333 86.8614 41.68C86.6614 42.0133 86.5614 42.44 86.5614 42.96V48H83.1614ZM102.735 38L97.9352 43.12L97.2952 43.3L94.4352 46.5L94.4152 43.02L98.9552 38H102.735ZM95.1552 33.76V48H91.7552V33.76H95.1552ZM98.4552 41L102.955 48H99.1952L96.2352 43L98.4552 41ZM105.897 36.84C105.203 36.84 104.697 36.7133 104.377 36.46C104.07 36.1933 103.917 35.78 103.917 35.22C103.917 34.6467 104.07 34.2333 104.377 33.98C104.697 33.7133 105.203 33.58 105.897 33.58C106.577 33.58 107.077 33.7133 107.397 33.98C107.717 34.2333 107.877 34.6467 107.877 35.22C107.877 35.78 107.717 36.1933 107.397 36.46C107.077 36.7133 106.577 36.84 105.897 36.84ZM107.597 38V48H104.197V38H107.597ZM110.017 48V38H113.057L113.237 41.44L112.857 41.06C112.99 40.34 113.224 39.74 113.557 39.26C113.904 38.78 114.33 38.42 114.837 38.18C115.357 37.9267 115.937 37.8 116.577 37.8C117.27 37.8 117.87 37.9333 118.377 38.2C118.897 38.4667 119.304 38.86 119.597 39.38C119.89 39.9 120.037 40.5533 120.037 41.34V48H116.637V42.24C116.637 41.5467 116.504 41.0667 116.237 40.8C115.97 40.5333 115.63 40.4 115.217 40.4C114.897 40.4 114.597 40.48 114.317 40.64C114.037 40.7867 113.817 41.0267 113.657 41.36C113.497 41.6933 113.417 42.14 113.417 42.7V48H110.017ZM132.099 35.32L132.379 37.6C132.299 37.5733 132.219 37.56 132.139 37.56C132.059 37.5467 131.979 37.54 131.899 37.54C131.313 37.54 130.873 37.6867 130.579 37.98C130.299 38.26 130.159 38.6133 130.159 39.04L128.959 38.6C128.959 38.0533 129.059 37.5267 129.259 37.02C129.459 36.5133 129.766 36.1 130.179 35.78C130.606 35.46 131.139 35.3 131.779 35.3C131.819 35.3 131.866 35.3 131.919 35.3C131.986 35.3 132.046 35.3067 132.099 35.32ZM128.659 45.78C129.819 45.78 130.706 46.0267 131.319 46.52C131.946 47 132.259 47.6933 132.259 48.6C132.259 49.4267 132.033 50.1133 131.579 50.66C131.126 51.2067 130.486 51.6133 129.659 51.88C128.846 52.16 127.879 52.3 126.759 52.3C124.946 52.3 123.639 52.0733 122.839 51.62C122.039 51.1667 121.639 50.5533 121.639 49.78C121.639 49.22 121.866 48.7667 122.319 48.42C122.773 48.0733 123.526 47.8867 124.579 47.86L124.499 48.18C123.686 48.0733 123.079 47.8333 122.679 47.46C122.279 47.0867 122.079 46.58 122.079 45.94C122.079 45.3 122.333 44.78 122.839 44.38C123.346 43.98 124.019 43.76 124.859 43.72L126.099 44.3H125.779C125.259 44.3267 124.893 44.4133 124.679 44.56C124.466 44.7067 124.359 44.8867 124.359 45.1C124.359 45.3267 124.453 45.5 124.639 45.62C124.826 45.7267 125.106 45.78 125.479 45.78H128.659ZM126.779 50.1C127.419 50.1 127.946 50.0533 128.359 49.96C128.786 49.88 129.106 49.76 129.319 49.6C129.533 49.4533 129.639 49.28 129.639 49.08C129.639 48.88 129.566 48.72 129.419 48.6C129.273 48.4933 129.006 48.44 128.619 48.44H125.039C124.786 48.44 124.579 48.5067 124.419 48.64C124.273 48.7733 124.199 48.94 124.199 49.14C124.199 49.4467 124.426 49.68 124.879 49.84C125.333 50.0133 125.966 50.1 126.779 50.1ZM126.899 37.8C127.913 37.8 128.779 37.9333 129.499 38.2C130.219 38.4667 130.766 38.8533 131.139 39.36C131.526 39.8533 131.719 40.4667 131.719 41.2C131.719 41.92 131.526 42.5333 131.139 43.04C130.766 43.5467 130.219 43.9333 129.499 44.2C128.779 44.4533 127.913 44.58 126.899 44.58C125.313 44.58 124.106 44.2867 123.279 43.7C122.466 43.1133 122.059 42.28 122.059 41.2C122.059 40.4667 122.246 39.8533 122.619 39.36C123.006 38.8533 123.559 38.4667 124.279 38.2C124.999 37.9333 125.873 37.8 126.899 37.8ZM126.899 39.74C126.459 39.74 126.099 39.8667 125.819 40.12C125.553 40.3733 125.419 40.7333 125.419 41.2C125.419 41.6533 125.553 42.0067 125.819 42.26C126.099 42.5133 126.459 42.64 126.899 42.64C127.326 42.64 127.679 42.5133 127.959 42.26C128.239 42.0067 128.379 41.6533 128.379 41.2C128.379 40.7333 128.239 40.3733 127.959 40.12C127.679 39.8667 127.326 39.74 126.899 39.74Z" fill="white"/>
<rect x="22" y="33" width="17" height="17" fill="white"/>
<rect x="22" y="87" width="17" height="17" fill="white"/>
<path d="M58.46 102V88.8H64.88C66.5067 88.8133 67.7067 89.1267 68.48 89.74C69.2533 90.34 69.64 91.2133 69.64 92.36C69.64 93.1067 69.42 93.7533 68.98 94.3C68.54 94.8333 67.8667 95.1733 66.96 95.32V95.34C67.9733 95.4733 68.7267 95.8267 69.22 96.4C69.7267 96.96 69.98 97.64 69.98 98.44C69.98 99.5733 69.58 100.453 68.78 101.08C67.98 101.693 66.78 102 65.18 102H58.46ZM61.78 99.58H64.6C65.2267 99.58 65.6933 99.4533 66 99.2C66.3067 98.9467 66.46 98.58 66.46 98.1C66.46 97.6333 66.3067 97.28 66 97.04C65.6933 96.7867 65.2267 96.66 64.6 96.66H61.78V99.58ZM61.78 94.2H64.28C65.5067 94.2 66.12 93.72 66.12 92.76C66.12 91.8 65.5067 91.32 64.28 91.32H61.78V94.2ZM77.4719 95.66C77.4719 95.1933 77.3385 94.8267 77.0719 94.56C76.8185 94.28 76.4719 94.14 76.0319 94.14C75.5919 94.14 75.2119 94.2533 74.8919 94.48C74.5852 94.6933 74.3719 95.08 74.2519 95.64L71.3719 94.96C71.5585 94 72.0519 93.2333 72.8519 92.66C73.6519 92.0867 74.7785 91.8 76.2319 91.8C77.2052 91.8 78.0319 91.9467 78.7119 92.24C79.4052 92.52 79.9319 92.9467 80.2919 93.52C80.6652 94.08 80.8519 94.7733 80.8519 95.6V99.26C80.8519 99.78 81.0852 100.04 81.5519 100.04C81.7919 100.04 81.9852 100.013 82.1319 99.96L81.9319 101.9C81.5319 102.087 81.0452 102.18 80.4719 102.18C79.9519 102.18 79.4919 102.1 79.0919 101.94C78.6919 101.767 78.3785 101.513 78.1519 101.18C77.9252 100.833 77.8119 100.4 77.8119 99.88V99.76L78.1919 99.62C78.1919 100.193 78.0185 100.673 77.6719 101.06C77.3385 101.447 76.8985 101.733 76.3519 101.92C75.8185 102.107 75.2585 102.2 74.6719 102.2C73.9919 102.2 73.3985 102.093 72.8919 101.88C72.3852 101.667 71.9919 101.36 71.7119 100.96C71.4452 100.547 71.3119 100.04 71.3119 99.44C71.3119 98.72 71.5252 98.1267 71.9519 97.66C72.3919 97.18 73.0785 96.8467 74.0119 96.66L77.7919 95.88L77.7719 97.68L75.8519 98.08C75.4519 98.16 75.1519 98.28 74.9519 98.44C74.7652 98.5867 74.6719 98.8133 74.6719 99.12C74.6719 99.4133 74.7785 99.6333 74.9919 99.78C75.2052 99.9267 75.4585 100 75.7519 100C75.9785 100 76.1919 99.9667 76.3919 99.9C76.6052 99.8333 76.7919 99.7333 76.9519 99.6C77.1119 99.4533 77.2385 99.2733 77.3319 99.06C77.4252 98.8467 77.4719 98.5933 77.4719 98.3V95.66ZM87.2633 88.82V98.44C87.2633 98.92 87.3766 99.2667 87.6033 99.48C87.8433 99.68 88.1699 99.78 88.5833 99.78C88.9033 99.78 89.1766 99.7467 89.4033 99.68C89.6433 99.6 89.8566 99.4867 90.0433 99.34L90.4033 101.44C90.0699 101.68 89.6499 101.867 89.1433 102C88.6366 102.133 88.1166 102.2 87.5833 102.2C86.8233 102.2 86.1633 102.093 85.6033 101.88C85.0566 101.667 84.6299 101.327 84.3233 100.86C84.0299 100.393 83.8766 99.7733 83.8633 99V89.76L87.2633 88.82ZM90.2433 92V94.42H82.1433V92H90.2433ZM92.0481 102V87.76H95.4481V93.82C95.7415 93.1533 96.1615 92.6533 96.7081 92.32C97.2548 91.9733 97.8881 91.8 98.6081 91.8C99.3015 91.8 99.9015 91.9333 100.408 92.2C100.928 92.4667 101.335 92.86 101.628 93.38C101.921 93.9 102.068 94.5533 102.068 95.34V102H98.6681V96.28C98.6681 95.56 98.5348 95.0667 98.2681 94.8C98.0148 94.52 97.6748 94.38 97.2481 94.38C96.9281 94.38 96.6281 94.46 96.3481 94.62C96.0681 94.78 95.8481 95.0333 95.6881 95.38C95.5281 95.7267 95.4481 96.18 95.4481 96.74V102H92.0481ZM104.45 102V92H107.45L107.59 94.16C107.844 93.4133 108.217 92.8333 108.71 92.42C109.217 92.0067 109.857 91.8 110.63 91.8C110.884 91.8 111.097 91.82 111.27 91.86C111.457 91.9 111.604 91.9533 111.71 92.02L111.37 94.82C111.237 94.7667 111.064 94.7267 110.85 94.7C110.65 94.66 110.404 94.64 110.11 94.64C109.71 94.64 109.337 94.7267 108.99 94.9C108.644 95.0733 108.364 95.3333 108.15 95.68C107.95 96.0133 107.85 96.44 107.85 96.96V102H104.45ZM117.687 91.8C118.74 91.8 119.66 92.0067 120.447 92.42C121.247 92.82 121.867 93.4133 122.307 94.2C122.76 94.9733 122.987 95.9067 122.987 97C122.987 98.0933 122.76 99.0333 122.307 99.82C121.867 100.593 121.247 101.187 120.447 101.6C119.66 102 118.74 102.2 117.687 102.2C116.66 102.2 115.747 102 114.947 101.6C114.147 101.187 113.52 100.593 113.067 99.82C112.627 99.0333 112.407 98.0933 112.407 97C112.407 95.9067 112.627 94.9733 113.067 94.2C113.52 93.4133 114.147 92.82 114.947 92.42C115.747 92.0067 116.66 91.8 117.687 91.8ZM117.687 94.22C117.3 94.22 116.967 94.3133 116.687 94.5C116.407 94.6867 116.194 94.9867 116.047 95.4C115.9 95.8133 115.827 96.3467 115.827 97C115.827 97.6533 115.9 98.1867 116.047 98.6C116.194 99 116.407 99.3 116.687 99.5C116.967 99.6867 117.3 99.78 117.687 99.78C118.087 99.78 118.427 99.6867 118.707 99.5C118.987 99.3 119.2 99 119.347 98.6C119.494 98.1867 119.567 97.6533 119.567 97C119.567 96.3467 119.494 95.8133 119.347 95.4C119.2 94.9867 118.987 94.6867 118.707 94.5C118.427 94.3133 118.087 94.22 117.687 94.22ZM129.66 91.8C130.713 91.8 131.633 92.0067 132.42 92.42C133.22 92.82 133.84 93.4133 134.28 94.2C134.733 94.9733 134.96 95.9067 134.96 97C134.96 98.0933 134.733 99.0333 134.28 99.82C133.84 100.593 133.22 101.187 132.42 101.6C131.633 102 130.713 102.2 129.66 102.2C128.633 102.2 127.72 102 126.92 101.6C126.12 101.187 125.493 100.593 125.04 99.82C124.6 99.0333 124.38 98.0933 124.38 97C124.38 95.9067 124.6 94.9733 125.04 94.2C125.493 93.4133 126.12 92.82 126.92 92.42C127.72 92.0067 128.633 91.8 129.66 91.8ZM129.66 94.22C129.273 94.22 128.94 94.3133 128.66 94.5C128.38 94.6867 128.166 94.9867 128.02 95.4C127.873 95.8133 127.8 96.3467 127.8 97C127.8 97.6533 127.873 98.1867 128.02 98.6C128.166 99 128.38 99.3 128.66 99.5C128.94 99.6867 129.273 99.78 129.66 99.78C130.06 99.78 130.4 99.6867 130.68 99.5C130.96 99.3 131.173 99 131.32 98.6C131.466 98.1867 131.54 97.6533 131.54 97C131.54 96.3467 131.466 95.8133 131.32 95.4C131.173 94.9867 130.96 94.6867 130.68 94.5C130.4 94.3133 130.06 94.22 129.66 94.22ZM136.872 102V92H139.912L140.012 93.94C140.332 93.2333 140.779 92.7 141.352 92.34C141.939 91.98 142.612 91.8 143.372 91.8C144.119 91.8 144.766 91.9667 145.312 92.3C145.859 92.6333 146.266 93.1267 146.532 93.78C146.746 93.34 147.019 92.9733 147.352 92.68C147.699 92.3867 148.092 92.1667 148.532 92.02C148.972 91.8733 149.426 91.8 149.892 91.8C150.559 91.8 151.146 91.9333 151.652 92.2C152.159 92.4533 152.559 92.8467 152.852 93.38C153.159 93.9 153.312 94.5533 153.312 95.34V102H149.912V96.12C149.912 95.48 149.786 95.0333 149.532 94.78C149.292 94.5267 148.966 94.4 148.552 94.4C148.219 94.4 147.912 94.4867 147.632 94.66C147.366 94.82 147.159 95.0667 147.012 95.4C146.866 95.7333 146.792 96.1533 146.792 96.66V102H143.392V96.12C143.392 95.48 143.266 95.0333 143.012 94.78C142.759 94.5267 142.432 94.4 142.032 94.4C141.726 94.4 141.432 94.48 141.152 94.64C140.886 94.8 140.672 95.0533 140.512 95.4C140.352 95.7333 140.272 96.1733 140.272 96.72V102H136.872ZM159.9 102.2C158.9 102.2 157.967 102.04 157.1 101.72C156.247 101.387 155.54 100.913 154.98 100.3L156.58 98.42C156.914 98.8467 157.354 99.2067 157.9 99.5C158.46 99.78 159.08 99.92 159.76 99.92C160.174 99.92 160.514 99.86 160.78 99.74C161.047 99.62 161.18 99.4333 161.18 99.18C161.18 98.9933 161.114 98.8467 160.98 98.74C160.847 98.62 160.58 98.52 160.18 98.44L158.78 98.16C157.527 97.9067 156.634 97.5333 156.1 97.04C155.58 96.5333 155.32 95.8733 155.32 95.06C155.32 94.5133 155.487 93.9933 155.82 93.5C156.154 92.9933 156.667 92.5867 157.36 92.28C158.054 91.96 158.94 91.8 160.02 91.8C161.034 91.8 161.927 91.9467 162.7 92.24C163.474 92.5333 164.087 92.96 164.54 93.52L162.92 95.36C162.6 94.96 162.187 94.6467 161.68 94.42C161.174 94.1933 160.667 94.08 160.16 94.08C159.84 94.08 159.567 94.1133 159.34 94.18C159.127 94.2333 158.967 94.3133 158.86 94.42C158.754 94.5267 158.7 94.66 158.7 94.82C158.7 94.9933 158.78 95.1467 158.94 95.28C159.114 95.4 159.427 95.5067 159.88 95.6L161.7 95.96C162.727 96.1467 163.467 96.4867 163.92 96.98C164.374 97.4733 164.6 98.0667 164.6 98.76C164.6 99.4133 164.427 100 164.08 100.52C163.734 101.04 163.214 101.453 162.52 101.76C161.827 102.053 160.954 102.2 159.9 102.2Z" fill="white"/>
<rect x="22" y="141" width="17" height="17" fill="white"/>
<path d="M68.72 145.46H61.9V148.26H67.34V150.92H61.9V156H58.46V142.8H68.72V145.46ZM74.2495 145.8C75.3029 145.8 76.2229 146.007 77.0095 146.42C77.8095 146.82 78.4295 147.413 78.8695 148.2C79.3229 148.973 79.5495 149.907 79.5495 151C79.5495 152.093 79.3229 153.033 78.8695 153.82C78.4295 154.593 77.8095 155.187 77.0095 155.6C76.2229 156 75.3029 156.2 74.2495 156.2C73.2229 156.2 72.3095 156 71.5095 155.6C70.7095 155.187 70.0829 154.593 69.6295 153.82C69.1895 153.033 68.9695 152.093 68.9695 151C68.9695 149.907 69.1895 148.973 69.6295 148.2C70.0829 147.413 70.7095 146.82 71.5095 146.42C72.3095 146.007 73.2229 145.8 74.2495 145.8ZM74.2495 148.22C73.8629 148.22 73.5295 148.313 73.2495 148.5C72.9695 148.687 72.7562 148.987 72.6095 149.4C72.4629 149.813 72.3895 150.347 72.3895 151C72.3895 151.653 72.4629 152.187 72.6095 152.6C72.7562 153 72.9695 153.3 73.2495 153.5C73.5295 153.687 73.8629 153.78 74.2495 153.78C74.6495 153.78 74.9895 153.687 75.2695 153.5C75.5495 153.3 75.7629 153 75.9095 152.6C76.0562 152.187 76.1295 151.653 76.1295 151C76.1295 150.347 76.0562 149.813 75.9095 149.4C75.7629 148.987 75.5495 148.687 75.2695 148.5C74.9895 148.313 74.6495 148.22 74.2495 148.22ZM86.2222 145.8C87.2755 145.8 88.1955 146.007 88.9822 146.42C89.7822 146.82 90.4022 147.413 90.8422 148.2C91.2955 148.973 91.5222 149.907 91.5222 151C91.5222 152.093 91.2955 153.033 90.8422 153.82C90.4022 154.593 89.7822 155.187 88.9822 155.6C88.1955 156 87.2755 156.2 86.2222 156.2C85.1955 156.2 84.2822 156 83.4822 155.6C82.6822 155.187 82.0555 154.593 81.6022 153.82C81.1622 153.033 80.9422 152.093 80.9422 151C80.9422 149.907 81.1622 148.973 81.6022 148.2C82.0555 147.413 82.6822 146.82 83.4822 146.42C84.2822 146.007 85.1955 145.8 86.2222 145.8ZM86.2222 148.22C85.8355 148.22 85.5022 148.313 85.2222 148.5C84.9422 148.687 84.7289 148.987 84.5822 149.4C84.4355 149.813 84.3622 150.347 84.3622 151C84.3622 151.653 84.4355 152.187 84.5822 152.6C84.7289 153 84.9422 153.3 85.2222 153.5C85.5022 153.687 85.8355 153.78 86.2222 153.78C86.6222 153.78 86.9622 153.687 87.2422 153.5C87.5222 153.3 87.7355 153 87.8822 152.6C88.0289 152.187 88.1022 151.653 88.1022 151C88.1022 150.347 88.0289 149.813 87.8822 149.4C87.7355 148.987 87.5222 148.687 87.2422 148.5C86.9622 148.313 86.6222 148.22 86.2222 148.22ZM97.1148 156.2C96.2882 156.2 95.5615 156 94.9348 155.6C94.3215 155.187 93.8415 154.593 93.4948 153.82C93.1615 153.047 92.9948 152.12 92.9948 151.04C92.9948 149.92 93.1682 148.973 93.5148 148.2C93.8748 147.427 94.3682 146.833 94.9948 146.42C95.6348 146.007 96.3682 145.8 97.1948 145.8C98.1015 145.8 98.8282 146.08 99.3748 146.64C99.9348 147.187 100.295 147.887 100.455 148.74L100.135 149.16V141.76H103.535V156H100.495L100.275 152.6L100.675 152.9C100.595 153.567 100.388 154.147 100.055 154.64C99.7348 155.133 99.3215 155.52 98.8148 155.8C98.3215 156.067 97.7548 156.2 97.1148 156.2ZM98.2948 153.7C98.6815 153.7 99.0082 153.6 99.2748 153.4C99.5548 153.187 99.7682 152.873 99.9148 152.46C100.062 152.047 100.135 151.54 100.135 150.94C100.135 150.38 100.062 149.907 99.9148 149.52C99.7815 149.12 99.5748 148.82 99.2948 148.62C99.0282 148.407 98.7015 148.3 98.3148 148.3C97.7282 148.3 97.2615 148.52 96.9148 148.96C96.5815 149.387 96.4148 150.067 96.4148 151C96.4148 151.933 96.5815 152.62 96.9148 153.06C97.2482 153.487 97.7082 153.7 98.2948 153.7Z" fill="white"/>
<rect x="22" y="195" width="17" height="17" fill="white"/>
<path d="M61.62 190.6C62.8467 190.6 63.9267 190.793 64.86 191.18C65.8067 191.553 66.6267 192.107 67.32 192.84L65.66 195.06C65.0867 194.46 64.4667 194.013 63.8 193.72C63.1467 193.413 62.4 193.26 61.56 193.26C61.0667 193.26 60.6667 193.313 60.36 193.42C60.0533 193.527 59.8333 193.673 59.7 193.86C59.5667 194.047 59.5 194.26 59.5 194.5C59.5 194.78 59.6267 195.02 59.88 195.22C60.1467 195.407 60.5733 195.567 61.16 195.7L63.38 196.2C64.7 196.507 65.6667 196.953 66.28 197.54C66.8933 198.127 67.2 198.907 67.2 199.88C67.2 200.813 66.96 201.607 66.48 202.26C66 202.9 65.34 203.387 64.5 203.72C63.66 204.04 62.7 204.2 61.62 204.2C60.74 204.2 59.9 204.107 59.1 203.92C58.3 203.72 57.58 203.44 56.94 203.08C56.3 202.72 55.76 202.307 55.32 201.84L56.98 199.54C57.3133 199.927 57.72 200.273 58.2 200.58C58.6933 200.873 59.2267 201.107 59.8 201.28C60.3867 201.453 60.98 201.54 61.58 201.54C62.0467 201.54 62.4333 201.493 62.74 201.4C63.06 201.307 63.2933 201.167 63.44 200.98C63.5867 200.793 63.66 200.573 63.66 200.32C63.66 200.04 63.56 199.807 63.36 199.62C63.16 199.42 62.78 199.253 62.22 199.12L59.78 198.58C59.0333 198.407 58.3667 198.18 57.78 197.9C57.2067 197.607 56.7533 197.22 56.42 196.74C56.0867 196.247 55.92 195.633 55.92 194.9C55.92 194.073 56.1467 193.34 56.6 192.7C57.0533 192.047 57.7067 191.533 58.56 191.16C59.4133 190.787 60.4333 190.6 61.62 190.6ZM73.2906 190.82V200.44C73.2906 200.92 73.404 201.267 73.6306 201.48C73.8706 201.68 74.1973 201.78 74.6106 201.78C74.9306 201.78 75.204 201.747 75.4306 201.68C75.6706 201.6 75.884 201.487 76.0706 201.34L76.4306 203.44C76.0973 203.68 75.6773 203.867 75.1706 204C74.664 204.133 74.144 204.2 73.6106 204.2C72.8506 204.2 72.1906 204.093 71.6306 203.88C71.084 203.667 70.6573 203.327 70.3506 202.86C70.0573 202.393 69.904 201.773 69.8906 201V191.76L73.2906 190.82ZM76.2706 194V196.42H68.1706V194H76.2706ZM81.2211 204.2C80.5411 204.2 79.9411 204.087 79.4211 203.86C78.9144 203.62 78.5144 203.24 78.2211 202.72C77.9278 202.2 77.7811 201.52 77.7811 200.68V194H81.1811V199.88C81.1811 200.52 81.3078 200.967 81.5611 201.22C81.8144 201.473 82.1744 201.6 82.6411 201.6C82.8811 201.6 83.1078 201.56 83.3211 201.48C83.5344 201.387 83.7211 201.253 83.8811 201.08C84.0411 200.893 84.1611 200.66 84.2411 200.38C84.3344 200.087 84.3811 199.747 84.3811 199.36V194H87.7811V204H84.7411L84.6411 202.12C84.3211 202.827 83.8744 203.353 83.3011 203.7C82.7278 204.033 82.0344 204.2 81.2211 204.2ZM93.9039 204.2C93.0772 204.2 92.3506 204 91.7239 203.6C91.1106 203.187 90.6306 202.593 90.2839 201.82C89.9506 201.047 89.7839 200.12 89.7839 199.04C89.7839 197.92 89.9572 196.973 90.3039 196.2C90.6639 195.427 91.1572 194.833 91.7839 194.42C92.4239 194.007 93.1572 193.8 93.9839 193.8C94.8906 193.8 95.6172 194.08 96.1639 194.64C96.7239 195.187 97.0839 195.887 97.2439 196.74L96.9239 197.16V189.76H100.324V204H97.2839L97.0639 200.6L97.4639 200.9C97.3839 201.567 97.1772 202.147 96.8439 202.64C96.5239 203.133 96.1106 203.52 95.6039 203.8C95.1106 204.067 94.5439 204.2 93.9039 204.2ZM95.0839 201.7C95.4706 201.7 95.7972 201.6 96.0639 201.4C96.3439 201.187 96.5572 200.873 96.7039 200.46C96.8506 200.047 96.9239 199.54 96.9239 198.94C96.9239 198.38 96.8506 197.907 96.7039 197.52C96.5706 197.12 96.3639 196.82 96.0839 196.62C95.8172 196.407 95.4906 196.3 95.1039 196.3C94.5172 196.3 94.0506 196.52 93.7039 196.96C93.3706 197.387 93.2039 198.067 93.2039 199C93.2039 199.933 93.3706 200.62 93.7039 201.06C94.0372 201.487 94.4972 201.7 95.0839 201.7ZM107.643 204.2C106.536 204.2 105.576 203.993 104.763 203.58C103.963 203.167 103.343 202.573 102.903 201.8C102.463 201.027 102.243 200.093 102.243 199C102.243 197.907 102.463 196.973 102.903 196.2C103.343 195.427 103.956 194.833 104.743 194.42C105.543 194.007 106.456 193.8 107.483 193.8C108.536 193.8 109.43 194.007 110.163 194.42C110.91 194.82 111.476 195.38 111.863 196.1C112.25 196.807 112.443 197.62 112.443 198.54C112.443 198.78 112.436 199.02 112.423 199.26C112.41 199.5 112.39 199.7 112.363 199.86H104.443V198.04H110.863L109.243 198.66C109.243 197.86 109.096 197.247 108.803 196.82C108.523 196.393 108.083 196.18 107.483 196.18C107.056 196.18 106.69 196.28 106.383 196.48C106.09 196.68 105.863 196.993 105.703 197.42C105.556 197.847 105.483 198.393 105.483 199.06C105.483 199.713 105.57 200.247 105.743 200.66C105.916 201.06 106.163 201.353 106.483 201.54C106.803 201.713 107.19 201.8 107.643 201.8C108.15 201.8 108.55 201.7 108.843 201.5C109.15 201.3 109.376 201.02 109.523 200.66L112.243 201.56C112.056 202.133 111.73 202.62 111.263 203.02C110.81 203.407 110.263 203.7 109.623 203.9C108.996 204.1 108.336 204.2 107.643 204.2ZM114.345 204V194H117.385L117.565 197.44L117.185 197.06C117.318 196.34 117.552 195.74 117.885 195.26C118.232 194.78 118.658 194.42 119.165 194.18C119.685 193.927 120.265 193.8 120.905 193.8C121.598 193.8 122.198 193.933 122.705 194.2C123.225 194.467 123.632 194.86 123.925 195.38C124.218 195.9 124.365 196.553 124.365 197.34V204H120.965V198.24C120.965 197.547 120.832 197.067 120.565 196.8C120.298 196.533 119.958 196.4 119.545 196.4C119.225 196.4 118.925 196.48 118.645 196.64C118.365 196.787 118.145 197.027 117.985 197.36C117.825 197.693 117.745 198.14 117.745 198.7V204H114.345ZM130.869 190.82V200.44C130.869 200.92 130.982 201.267 131.209 201.48C131.449 201.68 131.775 201.78 132.189 201.78C132.509 201.78 132.782 201.747 133.009 201.68C133.249 201.6 133.462 201.487 133.649 201.34L134.009 203.44C133.675 203.68 133.255 203.867 132.749 204C132.242 204.133 131.722 204.2 131.189 204.2C130.429 204.2 129.769 204.093 129.209 203.88C128.662 203.667 128.235 203.327 127.929 202.86C127.635 202.393 127.482 201.773 127.469 201V191.76L130.869 190.82ZM133.849 194V196.42H125.749V194H133.849ZM61.62 213.6C62.8467 213.6 63.9267 213.793 64.86 214.18C65.8067 214.553 66.6267 215.107 67.32 215.84L65.66 218.06C65.0867 217.46 64.4667 217.013 63.8 216.72C63.1467 216.413 62.4 216.26 61.56 216.26C61.0667 216.26 60.6667 216.313 60.36 216.42C60.0533 216.527 59.8333 216.673 59.7 216.86C59.5667 217.047 59.5 217.26 59.5 217.5C59.5 217.78 59.6267 218.02 59.88 218.22C60.1467 218.407 60.5733 218.567 61.16 218.7L63.38 219.2C64.7 219.507 65.6667 219.953 66.28 220.54C66.8933 221.127 67.2 221.907 67.2 222.88C67.2 223.813 66.96 224.607 66.48 225.26C66 225.9 65.34 226.387 64.5 226.72C63.66 227.04 62.7 227.2 61.62 227.2C60.74 227.2 59.9 227.107 59.1 226.92C58.3 226.72 57.58 226.44 56.94 226.08C56.3 225.72 55.76 225.307 55.32 224.84L56.98 222.54C57.3133 222.927 57.72 223.273 58.2 223.58C58.6933 223.873 59.2267 224.107 59.8 224.28C60.3867 224.453 60.98 224.54 61.58 224.54C62.0467 224.54 62.4333 224.493 62.74 224.4C63.06 224.307 63.2933 224.167 63.44 223.98C63.5867 223.793 63.66 223.573 63.66 223.32C63.66 223.04 63.56 222.807 63.36 222.62C63.16 222.42 62.78 222.253 62.22 222.12L59.78 221.58C59.0333 221.407 58.3667 221.18 57.78 220.9C57.2067 220.607 56.7533 220.22 56.42 219.74C56.0867 219.247 55.92 218.633 55.92 217.9C55.92 217.073 56.1467 216.34 56.6 215.7C57.0533 215.047 57.7067 214.533 58.56 214.16C59.4133 213.787 60.4333 213.6 61.62 213.6ZM73.9906 227.2C72.884 227.2 71.924 226.993 71.1106 226.58C70.3106 226.167 69.6906 225.573 69.2506 224.8C68.8106 224.027 68.5906 223.093 68.5906 222C68.5906 220.907 68.8106 219.973 69.2506 219.2C69.6906 218.427 70.304 217.833 71.0906 217.42C71.8906 217.007 72.804 216.8 73.8306 216.8C74.884 216.8 75.7773 217.007 76.5106 217.42C77.2573 217.82 77.824 218.38 78.2106 219.1C78.5973 219.807 78.7906 220.62 78.7906 221.54C78.7906 221.78 78.784 222.02 78.7706 222.26C78.7573 222.5 78.7373 222.7 78.7106 222.86H70.7906V221.04H77.2106L75.5906 221.66C75.5906 220.86 75.444 220.247 75.1506 219.82C74.8706 219.393 74.4306 219.18 73.8306 219.18C73.404 219.18 73.0373 219.28 72.7306 219.48C72.4373 219.68 72.2106 219.993 72.0506 220.42C71.904 220.847 71.8306 221.393 71.8306 222.06C71.8306 222.713 71.9173 223.247 72.0906 223.66C72.264 224.06 72.5106 224.353 72.8306 224.54C73.1506 224.713 73.5373 224.8 73.9906 224.8C74.4973 224.8 74.8973 224.7 75.1906 224.5C75.4973 224.3 75.724 224.02 75.8706 223.66L78.5906 224.56C78.404 225.133 78.0773 225.62 77.6106 226.02C77.1573 226.407 76.6106 226.7 75.9706 226.9C75.344 227.1 74.684 227.2 73.9906 227.2ZM80.6927 227V217H83.6927L83.8327 219.16C84.086 218.413 84.4593 217.833 84.9527 217.42C85.4593 217.007 86.0993 216.8 86.8727 216.8C87.126 216.8 87.3393 216.82 87.5127 216.86C87.6993 216.9 87.846 216.953 87.9527 217.02L87.6127 219.82C87.4793 219.767 87.306 219.727 87.0927 219.7C86.8927 219.66 86.646 219.64 86.3527 219.64C85.9527 219.64 85.5793 219.727 85.2327 219.9C84.886 220.073 84.606 220.333 84.3927 220.68C84.1927 221.013 84.0927 221.44 84.0927 221.96V227H80.6927ZM95.7864 217H99.3064L95.7064 227H91.6464L88.0464 217H91.6264L93.6864 224.62L95.7864 217ZM102.197 215.84C101.504 215.84 100.997 215.713 100.677 215.46C100.371 215.193 100.217 214.78 100.217 214.22C100.217 213.647 100.371 213.233 100.677 212.98C100.997 212.713 101.504 212.58 102.197 212.58C102.877 212.58 103.377 212.713 103.697 212.98C104.017 213.233 104.177 213.647 104.177 214.22C104.177 214.78 104.017 215.193 103.697 215.46C103.377 215.713 102.877 215.84 102.197 215.84ZM103.897 217V227H100.497V217H103.897ZM111.058 216.8C112.071 216.8 112.911 216.947 113.578 217.24C114.258 217.52 114.784 217.9 115.158 218.38C115.544 218.847 115.784 219.353 115.878 219.9L112.738 220.94C112.644 220.367 112.471 219.94 112.218 219.66C111.978 219.367 111.624 219.22 111.158 219.22C110.731 219.22 110.371 219.32 110.078 219.52C109.798 219.707 109.584 220.013 109.438 220.44C109.291 220.853 109.218 221.387 109.218 222.04C109.218 222.693 109.298 223.227 109.458 223.64C109.618 224.04 109.844 224.333 110.138 224.52C110.431 224.693 110.778 224.78 111.178 224.78C111.511 224.78 111.784 224.72 111.998 224.6C112.224 224.467 112.411 224.28 112.558 224.04C112.704 223.8 112.798 223.507 112.838 223.16L115.898 224.14C115.804 224.727 115.551 225.253 115.138 225.72C114.738 226.173 114.204 226.533 113.538 226.8C112.871 227.067 112.091 227.2 111.198 227.2C110.104 227.2 109.151 227 108.338 226.6C107.524 226.187 106.898 225.593 106.458 224.82C106.018 224.033 105.798 223.093 105.798 222C105.798 220.907 106.018 219.973 106.458 219.2C106.898 218.413 107.511 217.82 108.298 217.42C109.098 217.007 110.018 216.8 111.058 216.8ZM122.545 227.2C121.439 227.2 120.479 226.993 119.665 226.58C118.865 226.167 118.245 225.573 117.805 224.8C117.365 224.027 117.145 223.093 117.145 222C117.145 220.907 117.365 219.973 117.805 219.2C118.245 218.427 118.859 217.833 119.645 217.42C120.445 217.007 121.359 216.8 122.385 216.8C123.439 216.8 124.332 217.007 125.065 217.42C125.812 217.82 126.379 218.38 126.765 219.1C127.152 219.807 127.345 220.62 127.345 221.54C127.345 221.78 127.339 222.02 127.325 222.26C127.312 222.5 127.292 222.7 127.265 222.86H119.345V221.04H125.765L124.145 221.66C124.145 220.86 123.999 220.247 123.705 219.82C123.425 219.393 122.985 219.18 122.385 219.18C121.959 219.18 121.592 219.28 121.285 219.48C120.992 219.68 120.765 219.993 120.605 220.42C120.459 220.847 120.385 221.393 120.385 222.06C120.385 222.713 120.472 223.247 120.645 223.66C120.819 224.06 121.065 224.353 121.385 224.54C121.705 224.713 122.092 224.8 122.545 224.8C123.052 224.8 123.452 224.7 123.745 224.5C124.052 224.3 124.279 224.02 124.425 223.66L127.145 224.56C126.959 225.133 126.632 225.62 126.165 226.02C125.712 226.407 125.165 226.7 124.525 226.9C123.899 227.1 123.239 227.2 122.545 227.2ZM133.447 227.2C132.447 227.2 131.514 227.04 130.647 226.72C129.794 226.387 129.087 225.913 128.527 225.3L130.127 223.42C130.461 223.847 130.901 224.207 131.447 224.5C132.007 224.78 132.627 224.92 133.307 224.92C133.721 224.92 134.061 224.86 134.327 224.74C134.594 224.62 134.727 224.433 134.727 224.18C134.727 223.993 134.661 223.847 134.527 223.74C134.394 223.62 134.127 223.52 133.727 223.44L132.327 223.16C131.074 222.907 130.181 222.533 129.647 222.04C129.127 221.533 128.867 220.873 128.867 220.06C128.867 219.513 129.034 218.993 129.367 218.5C129.701 217.993 130.214 217.587 130.907 217.28C131.601 216.96 132.487 216.8 133.567 216.8C134.581 216.8 135.474 216.947 136.247 217.24C137.021 217.533 137.634 217.96 138.087 218.52L136.467 220.36C136.147 219.96 135.734 219.647 135.227 219.42C134.721 219.193 134.214 219.08 133.707 219.08C133.387 219.08 133.114 219.113 132.887 219.18C132.674 219.233 132.514 219.313 132.407 219.42C132.301 219.527 132.247 219.66 132.247 219.82C132.247 219.993 132.327 220.147 132.487 220.28C132.661 220.4 132.974 220.507 133.427 220.6L135.247 220.96C136.274 221.147 137.014 221.487 137.467 221.98C137.921 222.473 138.147 223.067 138.147 223.76C138.147 224.413 137.974 225 137.627 225.52C137.281 226.04 136.761 226.453 136.067 226.76C135.374 227.053 134.501 227.2 133.447 227.2Z" fill="white"/>
<rect x="22" y="261" width="17" height="17" fill="white"/>
<path d="M59.9 263.34H66.52V266H56.46V252.8H59.9V263.34ZM73.0141 266.2C71.9074 266.2 70.9474 265.993 70.1341 265.58C69.3341 265.167 68.7141 264.573 68.2741 263.8C67.8341 263.027 67.6141 262.093 67.6141 261C67.6141 259.907 67.8341 258.973 68.2741 258.2C68.7141 257.427 69.3274 256.833 70.1141 256.42C70.9141 256.007 71.8274 255.8 72.8541 255.8C73.9074 255.8 74.8007 256.007 75.5341 256.42C76.2807 256.82 76.8474 257.38 77.2341 258.1C77.6207 258.807 77.8141 259.62 77.8141 260.54C77.8141 260.78 77.8074 261.02 77.7941 261.26C77.7807 261.5 77.7607 261.7 77.7341 261.86H69.8141V260.04H76.2341L74.6141 260.66C74.6141 259.86 74.4674 259.247 74.1741 258.82C73.8941 258.393 73.4541 258.18 72.8541 258.18C72.4274 258.18 72.0607 258.28 71.7541 258.48C71.4607 258.68 71.2341 258.993 71.0741 259.42C70.9274 259.847 70.8541 260.393 70.8541 261.06C70.8541 261.713 70.9407 262.247 71.1141 262.66C71.2874 263.06 71.5341 263.353 71.8541 263.54C72.1741 263.713 72.5607 263.8 73.0141 263.8C73.5207 263.8 73.9207 263.7 74.2141 263.5C74.5207 263.3 74.7474 263.02 74.8941 262.66L77.6141 263.56C77.4274 264.133 77.1007 264.62 76.6341 265.02C76.1807 265.407 75.6341 265.7 74.9941 265.9C74.3674 266.1 73.7074 266.2 73.0141 266.2ZM84.4561 255.8C85.4694 255.8 86.3094 255.947 86.9761 256.24C87.6561 256.52 88.1828 256.9 88.5561 257.38C88.9428 257.847 89.1828 258.353 89.2761 258.9L86.1361 259.94C86.0428 259.367 85.8694 258.94 85.6161 258.66C85.3761 258.367 85.0228 258.22 84.5561 258.22C84.1294 258.22 83.7694 258.32 83.4761 258.52C83.1961 258.707 82.9828 259.013 82.8361 259.44C82.6894 259.853 82.6161 260.387 82.6161 261.04C82.6161 261.693 82.6961 262.227 82.8561 262.64C83.0161 263.04 83.2428 263.333 83.5361 263.52C83.8294 263.693 84.1761 263.78 84.5761 263.78C84.9094 263.78 85.1828 263.72 85.3961 263.6C85.6228 263.467 85.8094 263.28 85.9561 263.04C86.1028 262.8 86.1961 262.507 86.2361 262.16L89.2961 263.14C89.2028 263.727 88.9494 264.253 88.5361 264.72C88.1361 265.173 87.6028 265.533 86.9361 265.8C86.2694 266.067 85.4894 266.2 84.5961 266.2C83.5028 266.2 82.5494 266 81.7361 265.6C80.9228 265.187 80.2961 264.593 79.8561 263.82C79.4161 263.033 79.1961 262.093 79.1961 261C79.1961 259.907 79.4161 258.973 79.8561 258.2C80.2961 257.413 80.9094 256.82 81.6961 256.42C82.4961 256.007 83.4161 255.8 84.4561 255.8ZM95.2438 252.82V262.44C95.2438 262.92 95.3571 263.267 95.5838 263.48C95.8238 263.68 96.1504 263.78 96.5638 263.78C96.8838 263.78 97.1571 263.747 97.3838 263.68C97.6238 263.6 97.8371 263.487 98.0238 263.34L98.3838 265.44C98.0504 265.68 97.6304 265.867 97.1238 266C96.6171 266.133 96.0971 266.2 95.5638 266.2C94.8038 266.2 94.1438 266.093 93.5838 265.88C93.0371 265.667 92.6104 265.327 92.3038 264.86C92.0104 264.393 91.8571 263.773 91.8438 263V253.76L95.2438 252.82ZM98.2238 256V258.42H90.1238V256H98.2238ZM103.174 266.2C102.494 266.2 101.894 266.087 101.374 265.86C100.868 265.62 100.468 265.24 100.174 264.72C99.8809 264.2 99.7342 263.52 99.7342 262.68V256H103.134V261.88C103.134 262.52 103.261 262.967 103.514 263.22C103.768 263.473 104.128 263.6 104.594 263.6C104.834 263.6 105.061 263.56 105.274 263.48C105.488 263.387 105.674 263.253 105.834 263.08C105.994 262.893 106.114 262.66 106.194 262.38C106.288 262.087 106.334 261.747 106.334 261.36V256H109.734V266H106.694L106.594 264.12C106.274 264.827 105.828 265.353 105.254 265.7C104.681 266.033 103.988 266.2 103.174 266.2ZM112.177 266V256H115.177L115.317 258.16C115.57 257.413 115.944 256.833 116.437 256.42C116.944 256.007 117.584 255.8 118.357 255.8C118.61 255.8 118.824 255.82 118.997 255.86C119.184 255.9 119.33 255.953 119.437 256.02L119.097 258.82C118.964 258.767 118.79 258.727 118.577 258.7C118.377 258.66 118.13 258.64 117.837 258.64C117.437 258.64 117.064 258.727 116.717 258.9C116.37 259.073 116.09 259.333 115.877 259.68C115.677 260.013 115.577 260.44 115.577 260.96V266H112.177ZM125.534 266.2C124.427 266.2 123.467 265.993 122.654 265.58C121.854 265.167 121.234 264.573 120.794 263.8C120.354 263.027 120.134 262.093 120.134 261C120.134 259.907 120.354 258.973 120.794 258.2C121.234 257.427 121.847 256.833 122.634 256.42C123.434 256.007 124.347 255.8 125.374 255.8C126.427 255.8 127.32 256.007 128.054 256.42C128.8 256.82 129.367 257.38 129.754 258.1C130.14 258.807 130.334 259.62 130.334 260.54C130.334 260.78 130.327 261.02 130.314 261.26C130.3 261.5 130.28 261.7 130.254 261.86H122.334V260.04H128.754L127.134 260.66C127.134 259.86 126.987 259.247 126.694 258.82C126.414 258.393 125.974 258.18 125.374 258.18C124.947 258.18 124.58 258.28 124.274 258.48C123.98 258.68 123.754 258.993 123.594 259.42C123.447 259.847 123.374 260.393 123.374 261.06C123.374 261.713 123.46 262.247 123.634 262.66C123.807 263.06 124.054 263.353 124.374 263.54C124.694 263.713 125.08 263.8 125.534 263.8C126.04 263.8 126.44 263.7 126.734 263.5C127.04 263.3 127.267 263.02 127.414 262.66L130.134 263.56C129.947 264.133 129.62 264.62 129.154 265.02C128.7 265.407 128.154 265.7 127.514 265.9C126.887 266.1 126.227 266.2 125.534 266.2ZM56.46 289V275.8H62.88C64.5067 275.813 65.7067 276.127 66.48 276.74C67.2533 277.34 67.64 278.213 67.64 279.36C67.64 280.107 67.42 280.753 66.98 281.3C66.54 281.833 65.8667 282.173 64.96 282.32V282.34C65.9733 282.473 66.7267 282.827 67.22 283.4C67.7267 283.96 67.98 284.64 67.98 285.44C67.98 286.573 67.58 287.453 66.78 288.08C65.98 288.693 64.78 289 63.18 289H56.46ZM59.78 286.58H62.6C63.2267 286.58 63.6933 286.453 64 286.2C64.3067 285.947 64.46 285.58 64.46 285.1C64.46 284.633 64.3067 284.28 64 284.04C63.6933 283.787 63.2267 283.66 62.6 283.66H59.78V286.58ZM59.78 281.2H62.28C63.5067 281.2 64.12 280.72 64.12 279.76C64.12 278.8 63.5067 278.32 62.28 278.32H59.78V281.2ZM73.2719 289.2C72.5919 289.2 71.9919 289.087 71.4719 288.86C70.9652 288.62 70.5652 288.24 70.2719 287.72C69.9785 287.2 69.8319 286.52 69.8319 285.68V279H73.2319V284.88C73.2319 285.52 73.3585 285.967 73.6119 286.22C73.8652 286.473 74.2252 286.6 74.6919 286.6C74.9319 286.6 75.1585 286.56 75.3719 286.48C75.5852 286.387 75.7719 286.253 75.9319 286.08C76.0919 285.893 76.2119 285.66 76.2919 285.38C76.3852 285.087 76.4319 284.747 76.4319 284.36V279H79.8319V289H76.7919L76.6919 287.12C76.3719 287.827 75.9252 288.353 75.3519 288.7C74.7785 289.033 74.0852 289.2 73.2719 289.2ZM83.9747 277.84C83.2814 277.84 82.7747 277.713 82.4547 277.46C82.148 277.193 81.9947 276.78 81.9947 276.22C81.9947 275.647 82.148 275.233 82.4547 274.98C82.7747 274.713 83.2814 274.58 83.9747 274.58C84.6547 274.58 85.1547 274.713 85.4747 274.98C85.7947 275.233 85.9547 275.647 85.9547 276.22C85.9547 276.78 85.7947 277.193 85.4747 277.46C85.1547 277.713 84.6547 277.84 83.9747 277.84ZM85.6747 279V289H82.2747V279H85.6747ZM91.455 274.76V285.6C91.455 286.04 91.5283 286.353 91.675 286.54C91.8217 286.727 92.0683 286.82 92.415 286.82C92.615 286.82 92.7817 286.807 92.915 286.78C93.0483 286.753 93.2083 286.713 93.395 286.66L93.175 288.7C92.935 288.847 92.6217 288.967 92.235 289.06C91.8483 289.153 91.4683 289.2 91.095 289.2C90.0283 289.2 89.255 288.953 88.775 288.46C88.295 287.967 88.055 287.16 88.055 286.04V274.76H91.455ZM98.318 289.2C97.4913 289.2 96.7646 289 96.138 288.6C95.5246 288.187 95.0446 287.593 94.698 286.82C94.3646 286.047 94.198 285.12 94.198 284.04C94.198 282.92 94.3713 281.973 94.718 281.2C95.078 280.427 95.5713 279.833 96.198 279.42C96.838 279.007 97.5713 278.8 98.398 278.8C99.3046 278.8 100.031 279.08 100.578 279.64C101.138 280.187 101.498 280.887 101.658 281.74L101.338 282.16V274.76H104.738V289H101.698L101.478 285.6L101.878 285.9C101.798 286.567 101.591 287.147 101.258 287.64C100.938 288.133 100.525 288.52 100.018 288.8C99.5246 289.067 98.958 289.2 98.318 289.2ZM99.498 286.7C99.8846 286.7 100.211 286.6 100.478 286.4C100.758 286.187 100.971 285.873 101.118 285.46C101.265 285.047 101.338 284.54 101.338 283.94C101.338 283.38 101.265 282.907 101.118 282.52C100.985 282.12 100.778 281.82 100.498 281.62C100.231 281.407 99.9046 281.3 99.518 281.3C98.9313 281.3 98.4646 281.52 98.118 281.96C97.7846 282.387 97.618 283.067 97.618 284C97.618 284.933 97.7846 285.62 98.118 286.06C98.4513 286.487 98.9113 286.7 99.498 286.7ZM108.877 277.84C108.184 277.84 107.677 277.713 107.357 277.46C107.05 277.193 106.897 276.78 106.897 276.22C106.897 275.647 107.05 275.233 107.357 274.98C107.677 274.713 108.184 274.58 108.877 274.58C109.557 274.58 110.057 274.713 110.377 274.98C110.697 275.233 110.857 275.647 110.857 276.22C110.857 276.78 110.697 277.193 110.377 277.46C110.057 277.713 109.557 277.84 108.877 277.84ZM110.577 279V289H107.177V279H110.577ZM112.997 289V279H116.037L116.217 282.44L115.837 282.06C115.971 281.34 116.204 280.74 116.537 280.26C116.884 279.78 117.311 279.42 117.817 279.18C118.337 278.927 118.917 278.8 119.557 278.8C120.251 278.8 120.851 278.933 121.357 279.2C121.877 279.467 122.284 279.86 122.577 280.38C122.871 280.9 123.017 281.553 123.017 282.34V289H119.617V283.24C119.617 282.547 119.484 282.067 119.217 281.8C118.951 281.533 118.611 281.4 118.197 281.4C117.877 281.4 117.577 281.48 117.297 281.64C117.017 281.787 116.797 282.027 116.637 282.36C116.477 282.693 116.397 283.14 116.397 283.7V289H112.997ZM135.08 276.32L135.36 278.6C135.28 278.573 135.2 278.56 135.12 278.56C135.04 278.547 134.96 278.54 134.88 278.54C134.293 278.54 133.853 278.687 133.56 278.98C133.28 279.26 133.14 279.613 133.14 280.04L131.94 279.6C131.94 279.053 132.04 278.527 132.24 278.02C132.44 277.513 132.746 277.1 133.16 276.78C133.586 276.46 134.12 276.3 134.76 276.3C134.8 276.3 134.846 276.3 134.9 276.3C134.966 276.3 135.026 276.307 135.08 276.32ZM131.64 286.78C132.8 286.78 133.686 287.027 134.3 287.52C134.926 288 135.24 288.693 135.24 289.6C135.24 290.427 135.013 291.113 134.56 291.66C134.106 292.207 133.466 292.613 132.64 292.88C131.826 293.16 130.86 293.3 129.74 293.3C127.926 293.3 126.62 293.073 125.82 292.62C125.02 292.167 124.62 291.553 124.62 290.78C124.62 290.22 124.846 289.767 125.3 289.42C125.753 289.073 126.506 288.887 127.56 288.86L127.48 289.18C126.666 289.073 126.06 288.833 125.66 288.46C125.26 288.087 125.06 287.58 125.06 286.94C125.06 286.3 125.313 285.78 125.82 285.38C126.326 284.98 127 284.76 127.84 284.72L129.08 285.3H128.76C128.24 285.327 127.873 285.413 127.66 285.56C127.446 285.707 127.34 285.887 127.34 286.1C127.34 286.327 127.433 286.5 127.62 286.62C127.806 286.727 128.086 286.78 128.46 286.78H131.64ZM129.76 291.1C130.4 291.1 130.926 291.053 131.34 290.96C131.766 290.88 132.086 290.76 132.3 290.6C132.513 290.453 132.62 290.28 132.62 290.08C132.62 289.88 132.546 289.72 132.4 289.6C132.253 289.493 131.986 289.44 131.6 289.44H128.02C127.766 289.44 127.56 289.507 127.4 289.64C127.253 289.773 127.18 289.94 127.18 290.14C127.18 290.447 127.406 290.68 127.86 290.84C128.313 291.013 128.946 291.1 129.76 291.1ZM129.88 278.8C130.893 278.8 131.76 278.933 132.48 279.2C133.2 279.467 133.746 279.853 134.12 280.36C134.506 280.853 134.7 281.467 134.7 282.2C134.7 282.92 134.506 283.533 134.12 284.04C133.746 284.547 133.2 284.933 132.48 285.2C131.76 285.453 130.893 285.58 129.88 285.58C128.293 285.58 127.086 285.287 126.26 284.7C125.446 284.113 125.04 283.28 125.04 282.2C125.04 281.467 125.226 280.853 125.6 280.36C125.986 279.853 126.54 279.467 127.26 279.2C127.98 278.933 128.853 278.8 129.88 278.8ZM129.88 280.74C129.44 280.74 129.08 280.867 128.8 281.12C128.533 281.373 128.4 281.733 128.4 282.2C128.4 282.653 128.533 283.007 128.8 283.26C129.08 283.513 129.44 283.64 129.88 283.64C130.306 283.64 130.66 283.513 130.94 283.26C131.22 283.007 131.36 282.653 131.36 282.2C131.36 281.733 131.22 281.373 130.94 281.12C130.66 280.867 130.306 280.74 129.88 280.74ZM140.791 289.2C139.791 289.2 138.858 289.04 137.991 288.72C137.138 288.387 136.431 287.913 135.871 287.3L137.471 285.42C137.804 285.847 138.244 286.207 138.791 286.5C139.351 286.78 139.971 286.92 140.651 286.92C141.064 286.92 141.404 286.86 141.671 286.74C141.938 286.62 142.071 286.433 142.071 286.18C142.071 285.993 142.004 285.847 141.871 285.74C141.738 285.62 141.471 285.52 141.071 285.44L139.671 285.16C138.418 284.907 137.524 284.533 136.991 284.04C136.471 283.533 136.211 282.873 136.211 282.06C136.211 281.513 136.378 280.993 136.711 280.5C137.044 279.993 137.558 279.587 138.251 279.28C138.944 278.96 139.831 278.8 140.911 278.8C141.924 278.8 142.818 278.947 143.591 279.24C144.364 279.533 144.978 279.96 145.431 280.52L143.811 282.36C143.491 281.96 143.078 281.647 142.571 281.42C142.064 281.193 141.558 281.08 141.051 281.08C140.731 281.08 140.458 281.113 140.231 281.18C140.018 281.233 139.858 281.313 139.751 281.42C139.644 281.527 139.591 281.66 139.591 281.82C139.591 281.993 139.671 282.147 139.831 282.28C140.004 282.4 140.318 282.507 140.771 282.6L142.591 282.96C143.618 283.147 144.358 283.487 144.811 283.98C145.264 284.473 145.491 285.067 145.491 285.76C145.491 286.413 145.318 287 144.971 287.52C144.624 288.04 144.104 288.453 143.411 288.76C142.718 289.053 141.844 289.2 140.791 289.2Z" fill="white"/>
<rect x="20" y="323" width="17" height="17" fill="white"/>
<path d="M58.9 335.34H65.52V338H55.46V324.8H58.9V335.34ZM68.9513 326.84C68.2579 326.84 67.7513 326.713 67.4313 326.46C67.1246 326.193 66.9713 325.78 66.9713 325.22C66.9713 324.647 67.1246 324.233 67.4313 323.98C67.7513 323.713 68.2579 323.58 68.9513 323.58C69.6313 323.58 70.1313 323.713 70.4513 323.98C70.7713 324.233 70.9313 324.647 70.9313 325.22C70.9313 325.78 70.7713 326.193 70.4513 326.46C70.1313 326.713 69.6313 326.84 68.9513 326.84ZM70.6513 328V338H67.2513V328H70.6513ZM79.4916 338.2C78.8382 338.2 78.2582 338.053 77.7516 337.76C77.2582 337.467 76.8516 337.067 76.5316 336.56C76.2116 336.04 76.0049 335.453 75.9116 334.8L76.2316 334.38L76.0516 338H73.0716V323.76H76.4716V331.14L76.1516 330.66C76.3382 329.833 76.7182 329.153 77.2916 328.62C77.8649 328.073 78.6382 327.8 79.6116 327.8C80.3849 327.8 81.0716 328.007 81.6716 328.42C82.2849 328.833 82.7582 329.433 83.0916 330.22C83.4382 330.993 83.6116 331.933 83.6116 333.04C83.6116 334.12 83.4382 335.047 83.0916 335.82C82.7449 336.593 82.2649 337.187 81.6516 337.6C81.0382 338 80.3182 338.2 79.4916 338.2ZM78.3116 335.7C78.8982 335.7 79.3582 335.487 79.6916 335.06C80.0249 334.62 80.1916 333.933 80.1916 333C80.1916 332.067 80.0249 331.387 79.6916 330.96C79.3582 330.52 78.8982 330.3 78.3116 330.3C77.9249 330.3 77.5916 330.413 77.3116 330.64C77.0449 330.853 76.8382 331.16 76.6916 331.56C76.5449 331.96 76.4716 332.447 76.4716 333.02C76.4716 333.593 76.5449 334.08 76.6916 334.48C76.8382 334.88 77.0516 335.187 77.3316 335.4C77.6116 335.6 77.9382 335.7 78.3116 335.7ZM85.6106 338V328H88.6106L88.7506 330.16C89.004 329.413 89.3773 328.833 89.8706 328.42C90.3773 328.007 91.0173 327.8 91.7906 327.8C92.044 327.8 92.2573 327.82 92.4306 327.86C92.6173 327.9 92.764 327.953 92.8706 328.02L92.5306 330.82C92.3973 330.767 92.224 330.727 92.0106 330.7C91.8106 330.66 91.564 330.64 91.2706 330.64C90.8706 330.64 90.4973 330.727 90.1506 330.9C89.804 331.073 89.524 331.333 89.3106 331.68C89.1106 332.013 89.0106 332.44 89.0106 332.96V338H85.6106ZM99.6867 331.66C99.6867 331.193 99.5534 330.827 99.2867 330.56C99.0334 330.28 98.6867 330.14 98.2467 330.14C97.8067 330.14 97.4267 330.253 97.1067 330.48C96.8001 330.693 96.5867 331.08 96.4667 331.64L93.5867 330.96C93.7734 330 94.2667 329.233 95.0667 328.66C95.8667 328.087 96.9934 327.8 98.4467 327.8C99.4201 327.8 100.247 327.947 100.927 328.24C101.62 328.52 102.147 328.947 102.507 329.52C102.88 330.08 103.067 330.773 103.067 331.6V335.26C103.067 335.78 103.3 336.04 103.767 336.04C104.007 336.04 104.2 336.013 104.347 335.96L104.147 337.9C103.747 338.087 103.26 338.18 102.687 338.18C102.167 338.18 101.707 338.1 101.307 337.94C100.907 337.767 100.593 337.513 100.367 337.18C100.14 336.833 100.027 336.4 100.027 335.88V335.76L100.407 335.62C100.407 336.193 100.233 336.673 99.8867 337.06C99.5534 337.447 99.1134 337.733 98.5667 337.92C98.0334 338.107 97.4734 338.2 96.8867 338.2C96.2067 338.2 95.6134 338.093 95.1067 337.88C94.6001 337.667 94.2067 337.36 93.9267 336.96C93.6601 336.547 93.5267 336.04 93.5267 335.44C93.5267 334.72 93.7401 334.127 94.1667 333.66C94.6067 333.18 95.2934 332.847 96.2267 332.66L100.007 331.88L99.9867 333.68L98.0667 334.08C97.6667 334.16 97.3667 334.28 97.1667 334.44C96.9801 334.587 96.8867 334.813 96.8867 335.12C96.8867 335.413 96.9934 335.633 97.2067 335.78C97.4201 335.927 97.6734 336 97.9667 336C98.1934 336 98.4067 335.967 98.6067 335.9C98.8201 335.833 99.0067 335.733 99.1667 335.6C99.3267 335.453 99.4534 335.273 99.5467 335.06C99.6401 334.847 99.6867 334.593 99.6867 334.3V331.66ZM105.689 338V328H108.689L108.829 330.16C109.082 329.413 109.455 328.833 109.949 328.42C110.455 328.007 111.095 327.8 111.869 327.8C112.122 327.8 112.335 327.82 112.509 327.86C112.695 327.9 112.842 327.953 112.949 328.02L112.609 330.82C112.475 330.767 112.302 330.727 112.089 330.7C111.889 330.66 111.642 330.64 111.349 330.64C110.949 330.64 110.575 330.727 110.229 330.9C109.882 331.073 109.602 331.333 109.389 331.68C109.189 332.013 109.089 332.44 109.089 332.96V338H105.689ZM124.343 328L120.703 338C120.329 339.053 119.923 339.893 119.483 340.52C119.043 341.147 118.523 341.6 117.923 341.88C117.323 342.16 116.603 342.3 115.763 342.3C115.203 342.3 114.689 342.24 114.223 342.12C113.756 342 113.349 341.833 113.002 341.62L113.683 339.32C113.923 339.493 114.176 339.613 114.443 339.68C114.709 339.76 115.049 339.8 115.463 339.8C115.849 339.8 116.163 339.733 116.403 339.6C116.656 339.467 116.856 339.213 117.003 338.84L117.263 338.22L116.103 335.5L113.103 328H116.843L118.383 333.7L118.863 335.82L119.423 333.62L120.963 328H124.343Z" fill="white"/>
</svg>
