<svg width="22" height="20" viewBox="0 0 22 20" fill="none" xmlns="http://www.w3.org/2000/svg">
<path d="M7.55998 2V15M14.73 4.62V18M1.28998 5.78V15.51C1.28998 17.41 2.63998 18.19 4.27998 17.25L6.62998 15.91C7.13998 15.62 7.98998 15.59 8.51998 15.86L13.77 18.49C14.3 18.75 15.15 18.73 15.66 18.44L19.99 15.96C20.54 15.64 21 14.86 21 14.22V4.49C21 2.59 19.65 1.81 18.01 2.75L15.66 4.09C15.15 4.38 14.3 4.41 13.77 4.14L8.51998 1.52C7.98998 1.26 7.13998 1.28 6.62998 1.57L2.29998 4.05C1.73998 4.37 1.28998 5.15 1.28998 5.78V5.78Z" stroke="white" stroke-width="1.5" stroke-linecap="round" stroke-linejoin="round"/>
</svg>
