<svg width="25" height="29" viewBox="0 0 25 29" fill="none" xmlns="http://www.w3.org/2000/svg">
<path d="M10.3642 26.4058L10.3657 26.4078C11.3933 27.8485 13.558 27.8486 14.5858 26.4078L14.5872 26.4058C15.717 24.8162 16.698 23.4597 17.5453 22.288C19.1138 20.1191 20.2245 18.5832 20.9741 17.3736C21.5708 16.4108 21.9988 15.5644 22.2673 14.6845C22.5396 13.7921 22.6247 12.9414 22.6247 11.9985C22.6247 6.49227 18.0382 2.10464 12.4757 2.10464C6.91322 2.10464 2.32675 6.49227 2.32675 11.9985C2.32675 12.9414 2.41185 13.7921 2.68416 14.6845C2.95265 15.5644 3.38066 16.4108 3.97732 17.3736C4.72688 18.5832 5.8376 20.1191 7.40606 22.288C8.25343 23.4597 9.2344 24.8162 10.3642 26.4058ZM14.5794 11.9985C14.5794 13.0597 13.6802 13.996 12.4757 13.996C11.2712 13.996 10.372 13.0597 10.372 11.9985C10.372 10.9374 11.2712 10.0011 12.4757 10.0011C13.6802 10.0011 14.5794 10.9374 14.5794 11.9985Z" fill="#68D3FF" stroke="black" stroke-width="3"/>
</svg>
