<svg width="360" height="31" viewBox="0 0 360 31" fill="none" xmlns="http://www.w3.org/2000/svg">
<rect width="360" height="31" fill="#3F0015"/>
<path d="M182.83 12.01L176.28 6.77C175 5.75 173 5.74 171.73 6.76L165.18 12.01C164.24 12.76 163.67 14.26 163.87 15.44L165.13 22.98C165.42 24.67 166.99 26 168.7 26H179.3C180.99 26 182.59 24.64 182.88 22.97L184.14 15.43C184.32 14.26 183.75 12.76 182.83 12.01V12.01ZM174.75 22C174.75 22.41 174.41 22.75 174 22.75C173.59 22.75 173.25 22.41 173.25 22V19C173.25 18.59 173.59 18.25 174 18.25C174.41 18.25 174.75 18.59 174.75 19V22Z" fill="white"/>
<rect x="162.5" y="4.5" width="23" height="23" stroke="white"/>
<path d="M28.5 3.5C20.0054 3.5 13.0833 9.1125 13.0833 16C13.0833 22.8875 20.0054 28.5 28.5 28.5C36.9946 28.5 43.9166 22.8875 43.9166 16C43.9166 9.1125 36.9946 3.5 28.5 3.5ZM27.3437 11C27.3437 10.4875 27.8679 10.0625 28.5 10.0625C29.1321 10.0625 29.6562 10.4875 29.6562 11V17.25C29.6562 17.7625 29.1321 18.1875 28.5 18.1875C27.8679 18.1875 27.3437 17.7625 27.3437 17.25V11ZM29.9183 21.475C29.8412 21.6375 29.7333 21.7625 29.5946 21.8875C29.4404 22 29.2708 22.0875 29.0858 22.15C28.9008 22.2125 28.7004 22.25 28.5 22.25C28.2996 22.25 28.0991 22.2125 27.9141 22.15C27.7291 22.0875 27.5596 22 27.4054 21.8875C27.2666 21.7625 27.1587 21.6375 27.0816 21.475C27.0025 21.3248 26.9605 21.1634 26.9583 21C26.9583 20.8375 27.0046 20.675 27.0816 20.525C27.1587 20.375 27.2666 20.2375 27.4054 20.1125C27.5596 20 27.7291 19.9125 27.9141 19.85C28.2895 19.725 28.7105 19.725 29.0858 19.85C29.2708 19.9125 29.4404 20 29.5946 20.1125C29.7333 20.2375 29.8412 20.375 29.9183 20.525C29.9954 20.675 30.0416 20.8375 30.0416 21C30.0416 21.1625 29.9954 21.325 29.9183 21.475V21.475Z" fill="white"/>
<path d="M98.56 9V22M105.73 11.62V25M92.29 12.78V22.51C92.29 24.41 93.64 25.19 95.28 24.25L97.63 22.91C98.14 22.62 98.99 22.59 99.52 22.86L104.77 25.49C105.3 25.75 106.15 25.73 106.66 25.44L110.99 22.96C111.54 22.64 112 21.86 112 21.22V11.49C112 9.59 110.65 8.81 109.01 9.75L106.66 11.09C106.15 11.38 105.3 11.41 104.77 11.14L99.52 8.52C98.99 8.26 98.14 8.28 97.63 8.57L93.3 11.05C92.74 11.37 92.29 12.15 92.29 12.78V12.78Z" stroke="white" stroke-width="1.5" stroke-linecap="round" stroke-linejoin="round"/>
<path d="M323.56 15.12L321 12.56L323.56 10" stroke="white" stroke-width="1.5" stroke-linecap="round" stroke-linejoin="round"/>
<path d="M327 23H335C337.76 23 340 20.536 340 17.5C340 14.464 337.76 12 335 12H324" stroke="white" stroke-width="1.5" stroke-miterlimit="10" stroke-linecap="round" stroke-linejoin="round"/>
<path d="M260 12V17M260 26C265.5 26 270 21.5 270 16C270 10.5 265.5 6 260 6C254.5 6 250 10.5 250 16C250 21.5 254.5 26 260 26Z" stroke="white" stroke-width="1.5" stroke-linecap="round" stroke-linejoin="round"/>
<path d="M259.995 20H260.004" stroke="white" stroke-width="2" stroke-linecap="round" stroke-linejoin="round"/>
</svg>
